<?xml version="1.0" encoding="UTF-8"?>
<svg xmlns="http://www.w3.org/2000/svg" viewBox="0 0 500 400">
  <!-- Network nodes -->
  <g id="network">
    <!-- Center node -->
    <circle cx="250" cy="200" r="20" fill="#008080"/>
    
    <!-- Outer nodes - Teal -->
    <circle cx="180" cy="160" r="15" fill="#008080"/>
    <circle cx="160" cy="240" r="15" fill="#008080"/>
    <circle cx="320" cy="160" r="15" fill="#008080"/>
    <circle cx="340" cy="240" r="15" fill="#008080"/>
    <circle cx="250" cy="140" r="10" fill="#008080"/>
    <circle cx="250" cy="260" r="10" fill="#008080"/>
    
    <!-- Outer nodes - Gold -->
    <circle cx="200" cy="200" r="15" fill="#DAA520"/>
    <circle cx="300" cy="200" r="15" fill="#DAA520"/>
    <circle cx="220" cy="280" r="15" fill="#DAA520"/>
    <circle cx="280" cy="280" r="15" fill="#DAA520"/>
    
    <!-- Connection lines -->
    <line x1="250" y1="200" x2="180" y2="160" stroke="#008080" stroke-width="2"/>
    <line x1="250" y1="200" x2="160" y2="240" stroke="#008080" stroke-width="2"/>
    <line x1="250" y1="200" x2="320" y2="160" stroke="#008080" stroke-width="2"/>
    <line x1="250" y1="200" x2="340" y2="240" stroke="#008080" stroke-width="2"/>
    <line x1="250" y1="200" x2="250" y2="140" stroke="#008080" stroke-width="2"/>
    <line x1="250" y1="200" x2="250" y2="260" stroke="#008080" stroke-width="2"/>
    <line x1="250" y1="200" x2="200" y2="200" stroke="#008080" stroke-width="2"/>
    <line x1="250" y1="200" x2="300" y2="200" stroke="#008080" stroke-width="2"/>
    <line x1="250" y1="200" x2="220" y2="280" stroke="#008080" stroke-width="2"/>
    <line x1="250" y1="200" x2="280" y2="280" stroke="#008080" stroke-width="2"/>
  </g>
  
  <!-- Text -->
  <text x="250" y="340" text-anchor="middle" font-family="Arial, sans-serif" font-size="36" font-weight="bold">
    Savannah elimu
  </text>
  <text x="250" y="380" text-anchor="middle" font-family="Arial, sans-serif" font-size="32" fill="#008080">
    connect
  </text>
</svg>
